<svg xmlns="http://www.w3.org/2000/svg" viewBox="1.63 31.2 147.04659 127.6221777777778" id="INNOVATIONS" style="max-height: 500px" width="147.04659" height="127.6221777777778"><defs fill="#2196f3"><style>.cls-1{fill:#2196f3;}</style></defs><path fill="#2196f3" d="M87.86,34.336C51.687,56.094,19.721,98,3.6,144.916l-1.97,5.82L12.469,146.8c40.471-14.685,83.091-23.639,119.355-24.982l14.594-.537-7.252-7.253C117.587,92.357,102.1,65.943,95.023,38.992l-1.97-7.79Zm-.448,21.489c4.477,17.192,14.774,34.92,29.727,51.037l5.91,6.358-14.506.985c-25.07,1.88-46.739,6.267-73.063,15.042-8.058,2.686-14.863,4.656-15.132,4.477-1.791-1.88,13.52-33.487,21.937-45.307C50.164,77.4,66.819,60.66,76.578,54.124,80.787,51.348,84.547,49.2,85,49.289,85.443,49.468,86.517,52.423,87.412,55.825Z" class="cls-1"/><path fill="#2196f3" d="M404.673,46.938c-21.5,5.758-31.4,30.59-20.694,51.644,2.609,5.129,8.547,10.617,14.4,13.406,4.409,2.07,6.029,2.339,15.3,2.339,9.357,0,10.887-.269,15.475-2.429,14.036-6.568,22.044-20.334,21.234-36.169-.63-11.607-6.208-21.144-15.205-25.732C426.806,45.678,414.12,44.418,404.673,46.938Zm22.493,5.4c9.267,5.038,13.046,13.316,13.046,28.7,0,11.877-1.619,17.365-6.748,23.213a20.387,20.387,0,0,1-16.195,7.108c-7.378.09-11.877-1.529-16.825-6.028-13.946-12.416-14.576-42.107-1.08-51.914C406.382,48.2,418.8,47.747,427.166,52.336Z" class="cls-1"/><path fill="#2196f3" d="M485.918,47.207c-8.457,2.34-13.586,5.4-19.074,11.427-7.378,8.008-9.987,20.064-6.928,31.671,2.7,9.987,8.278,16.465,18.355,21.143,9.447,4.409,25.1,4.5,39.588.18l4.679-1.439v-9.717c0-9,.18-9.807,1.8-10.257.99-.27,1.8-.9,1.8-1.44,0-.63-3.868-.99-11.7-.99-9.807,0-11.7.18-11.7,1.35,0,.99,1.08,1.35,4.319,1.35a16.226,16.226,0,0,1,5.4.719c1.619,1.08,2.339,6.388,1.529,12.327-.54,4.768-.81,5.218-3.869,6.478-3.959,1.619-14.305,1.8-19.974.36-8.457-2.34-16.015-9.448-19.434-18.535-2.609-6.838-2.339-20.874.45-27.172,2.339-5.308,8.457-11.426,13.406-13.5,7.828-3.239,23.933-2.249,30.051,1.8,2.519,1.8,2.969,2.609,3.239,6.3.45,6.748,2.339,5.308,3.509-2.7.54-3.869.9-7.108.81-7.2-1.17-1.17-12.867-3.149-20.334-3.509C494.376,45.588,491.047,45.858,485.918,47.207Z" class="cls-1"/><path fill="#2196f3" d="M536.483,46.578c-7.017,1.439-7.647,1.709-7.647,2.969,0,.81.9,1.349,2.249,1.349,3.779,0,9.447,6.748,17.815,21.324L556.727,85.9V96.963c0,6.118-.359,11.606-.809,12.326-.45.63-2.7,1.44-4.949,1.62-2.519.359-4.049.9-3.869,1.529.54,1.62,27.622,1.53,27.622,0,0-.81-1.08-1.26-2.969-1.26-5.938,0-6.208-.809-5.848-15.385l.27-13.046,4.408-7.378c2.43-4.049,7.828-11.786,11.967-17.275s7.467-10.167,7.467-10.347c0-.27-1.619-.45-3.508-.45-3.419,0-3.6.18-6.928,6.029-4.229,7.647-14.666,24.652-16.106,26.182-.9.99-2.519-1.44-8.1-11.7-8.008-14.665-11.517-20.154-13.766-21.233C540.8,46.128,538.463,46.128,536.483,46.578Z" class="cls-1"/><path fill="#2196f3" d="M156.706,50.626a61.485,61.485,0,0,1,.54,7.2c0,2.879.36,3.869,1.35,3.869s1.349-.99,1.349-3.869c0-6.118.54-6.478,10.527-6.478h8.818l.27,28.522c.269,31.94.359,31.31-6.119,31.31-2.519,0-3.419.36-3.059,1.17.63,1.71,27.352,1.8,27.352,0,0-.72-1.08-1.17-3.059-1.17-6.028,0-6.028.36-5.758-31.31l.27-28.522H198c9.987,0,10.527.36,10.527,6.478,0,2.789.36,3.869,1.26,3.869.989,0,1.349-1.709,1.619-7.2l.27-7.2h-55.6Z" class="cls-1"/><path fill="#2196f3" d="M217.528,48.107c0,.99,2.25,1.89,4.859,1.89,4.049,0,4.139.539,4.139,30.77,0,27.262-.09,28.612-1.71,29.512a12.862,12.862,0,0,1-4.5.9c-1.709,0-2.789.45-2.789,1.26,0,1.62,27.082,1.53,27.712-.18.18-.72-.81-1.08-3.239-1.08-6.658,0-6.478.63-6.478-31.13,0-32.481-.9-29.6,9.447-29.6,10.347.09,15.745,4.5,15.745,13.137,0,7.917-7.287,14.305-16.375,14.305-2.339,0-4.318.27-4.318.63,0,.45,5.758,8.368,12.866,17.815l12.776,17.1,6.568.09c4.679.09,6.478-.18,6.478-.99,0-.63-.99-1.35-2.069-1.709-1.44-.36-6.029-5.669-13.316-15.116C257.206,87.7,252.078,80.857,251.9,80.5s1.71-1.26,4.049-2.07c5.4-1.8,10.887-6.208,12.506-10.077,1.89-4.409,1.62-11.067-.54-14.576-3.509-5.758-6.838-6.478-29.871-6.478C226.616,47.3,217.528,47.657,217.528,48.107Z" class="cls-1"/><path fill="#2196f3" d="M285.908,48.107c0,1.08,2.339,1.89,5.488,1.89,1.98,0,2.879.539,3.509,2.339.54,1.26.9,13.766.9,28.791,0,25.283-.09,26.542-1.8,28.252a7.209,7.209,0,0,1-4.949,1.8c-1.979,0-3.149.45-3.149,1.17,0,.99,2.969,1.17,13.946,1.17s13.946-.18,13.946-1.17c0-.72-1.08-1.17-2.969-1.17a9.586,9.586,0,0,1-4.769-1.259c-1.62-1.17-1.71-2.789-1.979-23.663-.18-12.237-.09-25.283.269-28.882.54-5.938.81-6.478,2.79-6.928,1.169-.269,3.149-.629,4.408-.9s2.25-.9,2.25-1.35c0-.54-5.4-.9-13.946-.9C292.206,47.3,285.908,47.657,285.908,48.107Z" class="cls-1"/><path fill="#2196f3" d="M321.9,48.107c0,.99,2.25,1.89,4.859,1.89,4.049,0,4.139.629,4.139,30.321v28.071l-2.7,1.98c-1.439,1.079-2.519,2.249-2.339,2.519s10.977.63,23.843.81c18.894.27,23.573.09,23.933-.9.18-.63.72-4.319,1.17-8.188.629-6.208.629-6.928-.81-6.928-1.08,0-1.71,1.08-2.07,3.959-.809,5.489-2.249,6.928-7.377,7.828-5.219.81-19.8.99-22.584.27l-2.069-.54V81.307c0-17.455.36-28.521.9-29.6A3.923,3.923,0,0,1,343.761,50c2.969,0,6.028-.99,6.028-1.89,0-.45-6.3-.81-13.946-.81S321.9,47.657,321.9,48.107Z" class="cls-1"/><path fill="#2196f3" d="M598.771,45.585a9.715,9.715,0,0,1,1.8-.151,2.976,2.976,0,0,1,2.105.593,1.811,1.811,0,0,1,.572,1.381,1.91,1.91,0,0,1-1.371,1.856V49.3a1.811,1.811,0,0,1,1.068,1.467,11.651,11.651,0,0,0,.562,2h-.971a9.329,9.329,0,0,1-.486-1.737c-.216-1-.6-1.382-1.457-1.414h-.885v3.151h-.939Zm.939,3.312h.961c1,0,1.64-.55,1.64-1.381,0-.938-.68-1.349-1.673-1.359a3.884,3.884,0,0,0-.928.086Z" class="cls-1"/><path fill="#2196f3" d="M600.915,54.944a5.847,5.847,0,1,1,5.847-5.847A5.853,5.853,0,0,1,600.915,54.944Zm0-11.02a5.173,5.173,0,1,0,5.172,5.173A5.179,5.179,0,0,0,600.915,43.924Z" class="cls-1"/><path fill="#2196f3" d="M170.4,166.844V142.472h4.326v24.372Z" class="cls-1"/><path fill="#2196f3" d="M199.538,166.844V142.472h4.436l7.6,13.714,2.5,5.18h.151q-.151-1.9-.356-4.08t-.2-4.231V142.472H217.8v24.372h-4.437l-7.6-13.713-2.5-5.181h-.151q.15,1.94.355,4.063c.134,1.416.2,2.808.2,4.173v10.658Z" class="cls-1"/><path fill="#2196f3" d="M242.617,166.844V142.472h4.437l7.6,13.714,2.495,5.18h.151q-.15-1.9-.355-4.08c-.134-1.454-.205-2.864-.205-4.231V142.472h4.138v24.372h-4.436l-7.6-13.713-2.5-5.181H246.2q.151,1.94.356,4.063t.2,4.173v10.658Z" class="cls-1"/><path fill="#2196f3" d="M295.163,167.292a10.638,10.638,0,0,1-4.359-.877,9.4,9.4,0,0,1-3.391-2.534,11.876,11.876,0,0,1-2.2-4,16.787,16.787,0,0,1-.782-5.33,16.484,16.484,0,0,1,.782-5.273,11.3,11.3,0,0,1,2.2-3.932,9.546,9.546,0,0,1,3.391-2.458,11.5,11.5,0,0,1,8.718,0,9.723,9.723,0,0,1,3.41,2.458,11.111,11.111,0,0,1,2.217,3.932,16.482,16.482,0,0,1,.785,5.273,16.784,16.784,0,0,1-.785,5.33,11.672,11.672,0,0,1-2.217,4,9.575,9.575,0,0,1-3.41,2.534A10.641,10.641,0,0,1,295.163,167.292Zm0-3.764a5.345,5.345,0,0,0,2.609-.634,5.809,5.809,0,0,0,1.975-1.808,9.007,9.007,0,0,0,1.267-2.831,14.215,14.215,0,0,0,.446-3.709,10.745,10.745,0,0,0-1.693-6.428,5.712,5.712,0,0,0-9.2,0,10.724,10.724,0,0,0-1.7,6.428,14.258,14.258,0,0,0,.446,3.709,9.008,9.008,0,0,0,1.268,2.831,5.809,5.809,0,0,0,1.975,1.808A5.342,5.342,0,0,0,295.163,163.528Z" class="cls-1"/><path fill="#2196f3" d="M333.434,166.844l-7.6-24.372h4.58l3.431,12.26q.592,2.088,1.063,3.95t1.1,3.989h.151q.635-2.125,1.1-3.989t1.023-3.95l3.393-12.26H346.1l-7.565,24.372Z" class="cls-1"/><path fill="#2196f3" d="M363.918,166.844l7.937-24.372h5.067l7.937,24.372h-4.543l-1.9-6.6h-8.2l-1.9,6.6Zm8.162-12.969-.858,2.981h6.223l-.858-2.981q-.594-1.936-1.137-3.987t-1.06-4.062h-.15q-.524,2.052-1.043,4.081T372.08,153.875Z" class="cls-1"/><path fill="#2196f3" d="M409.043,166.844v-20.72H402v-3.652h18.41v3.652h-7.046v20.72Z" class="cls-1"/><path fill="#2196f3" d="M443.1,166.844V142.472h4.326v24.372Z" class="cls-1"/><path fill="#2196f3" d="M481.712,167.292a10.646,10.646,0,0,1-4.36-.877,9.4,9.4,0,0,1-3.39-2.534,11.9,11.9,0,0,1-2.2-4,16.787,16.787,0,0,1-.781-5.33,16.485,16.485,0,0,1,.781-5.273,11.316,11.316,0,0,1,2.2-3.932,9.542,9.542,0,0,1,3.39-2.458,11.5,11.5,0,0,1,8.719,0,9.732,9.732,0,0,1,3.41,2.458,11.111,11.111,0,0,1,2.217,3.932,16.483,16.483,0,0,1,.784,5.273,16.785,16.785,0,0,1-.784,5.33,11.672,11.672,0,0,1-2.217,4,9.583,9.583,0,0,1-3.41,2.534A10.644,10.644,0,0,1,481.712,167.292Zm0-3.764a5.338,5.338,0,0,0,2.608-.634,5.8,5.8,0,0,0,1.976-1.808,9.007,9.007,0,0,0,1.267-2.831,14.258,14.258,0,0,0,.446-3.709,10.745,10.745,0,0,0-1.693-6.428,5.712,5.712,0,0,0-9.2,0,10.724,10.724,0,0,0-1.7,6.428,14.258,14.258,0,0,0,.446,3.709,9.008,9.008,0,0,0,1.268,2.831,5.8,5.8,0,0,0,1.975,1.808A5.342,5.342,0,0,0,481.712,163.528Z" class="cls-1"/><path fill="#2196f3" d="M515.992,166.844V142.472h4.436l7.6,13.714,2.5,5.18h.151q-.152-1.9-.355-4.08t-.205-4.231V142.472h4.138v24.372h-4.436l-7.6-13.713-2.5-5.181h-.151q.152,1.94.355,4.063t.205,4.173v10.658Z" class="cls-1"/><path fill="#2196f3" d="M566.19,167.292a12.511,12.511,0,0,1-4.751-.933,12.36,12.36,0,0,1-4.044-2.645l2.535-2.944a10.872,10.872,0,0,0,2.981,1.993,8.021,8.021,0,0,0,3.353.765,5.015,5.015,0,0,0,3.169-.857,2.757,2.757,0,0,0,1.08-2.274,2.673,2.673,0,0,0-.279-1.267,2.884,2.884,0,0,0-.784-.912,6.752,6.752,0,0,0-1.191-.728q-.689-.335-1.509-.671l-3.353-1.453a11.486,11.486,0,0,1-1.77-.931,7.777,7.777,0,0,1-1.587-1.341,6.068,6.068,0,0,1-1.562-4.212,6.025,6.025,0,0,1,.614-2.7,6.84,6.84,0,0,1,1.7-2.181,7.814,7.814,0,0,1,2.589-1.452,10,10,0,0,1,3.3-.523,10.408,10.408,0,0,1,4.1.838,10.561,10.561,0,0,1,3.39,2.255l-2.2,2.758a10.93,10.93,0,0,0-2.461-1.527,6.923,6.923,0,0,0-2.834-.56,4.624,4.624,0,0,0-2.793.764,2.461,2.461,0,0,0-1.043,2.106,2.231,2.231,0,0,0,.315,1.211,3.21,3.21,0,0,0,.859.893,6.882,6.882,0,0,0,1.247.71c.473.211.956.415,1.455.613l3.317,1.38a11.675,11.675,0,0,1,1.975,1.043,7.246,7.246,0,0,1,1.546,1.38,6.05,6.05,0,0,1,1.023,1.806,6.92,6.92,0,0,1,.375,2.367,6.667,6.667,0,0,1-.6,2.795,6.743,6.743,0,0,1-1.733,2.292,8.515,8.515,0,0,1-2.757,1.564A10.892,10.892,0,0,1,566.19,167.292Z" class="cls-1"/></svg>